<?xml version="1.0" encoding="iso-8859-1"?>
<!-- Generator: Adobe Illustrator 19.0.0, SVG Export Plug-In . SVG Version: 6.00 Build 0)  -->
<svg version="1.1" id="Layer_1" xmlns="http://www.w3.org/2000/svg" xmlns:xlink="http://www.w3.org/1999/xlink" x="0px" y="0px"
	 viewBox="0 0 484.8 484.8" style="enable-background:new 0 0 484.8 484.8;" xml:space="preserve">
<path style="fill:#9E5523;" d="M482.4,458.4c0,12.8-10.4,23.2-23.2,23.2H25.6c-12.8-0.8-23.2-11.2-23.2-23.2V116.8
	c0-12.8,10.4-23.2,23.2-23.2h433.6c12.8,0,23.2,10.4,23.2,23.2L482.4,458.4L482.4,458.4z"/>
<path style="fill:#442B1B;" d="M482.4,461.6c0,12.8-10.4,23.2-23.2,23.2H25.6c-12.8,0-23.2-10.4-23.2-23.2V120.8
	c0-12.8,10.4-23.2,23.2-23.2h433.6c12.8,0,23.2,10.4,23.2,23.2L482.4,461.6L482.4,461.6z"/>
<polygon style="fill:#7EAF8A;" points="395.2,0 2.4,100.8 2.4,215.2 24.8,303.2 445.6,195.2 "/>
<polygon style="fill:#578C65;" points="376.8,31.2 2.4,128 2.4,236.8 24,320.8 424.8,217.6 "/>
<polyline style="fill:#43754F;" points="424.8,217.6 376.8,31.2 185.6,81.6 2.4,236.8 "/>
<path style="fill:#914D1F;" d="M2.4,131.2v330.4c0,12.8,10.4,23.2,23.2,23.2h433.6c12.8,0,23.2-10.4,23.2-23.2V131.2H2.4z"/>
<path style="fill:#844419;" d="M459.2,484.8c12.8,0,23.2-10.4,23.2-23.2V131.2H2.4"/>
<polygon style="opacity:0.3;fill:#9E5523;enable-background:new    ;" points="482.4,193.6 449.6,160 424,165.6 404.8,242.4 
	444.8,255.2 482.4,244.8 "/>
<path style="fill:#0093F7;" d="M453.6,374.4c0,8.8-7.2,16.8-16.8,16.8H48c-8.8,0-16.8-7.2-16.8-16.8V169.6c0-8.8,7.2-16.8,16.8-16.8
	h388.8c8.8,0,16.8,7.2,16.8,16.8L453.6,374.4L453.6,374.4z"/>
<path style="fill:#0580E5;" d="M31.2,169.6c0-8.8,7.2-16.8,16.8-16.8h388.8c8.8,0,16.8,7.2,16.8,16.8v204c0,8.8-7.2,16.8-16.8,16.8"
	/>
<path style="fill:#24D1FF;" d="M31.2,169.6c0-8.8,7.2-16.8,16.8-16.8h388.8c8.8,0,16.8,7.2,16.8,16.8"/>
<path style="fill:#AA5D29;" d="M2.4,198.4v263.2c0,12.8,10.4,23.2,23.2,23.2h433.6c12.8,0,23.2-10.4,23.2-23.2V198.4H2.4z"/>
<g>
	<path style="fill:#9E5523;" d="M459.2,484.8c12.8,0,23.2-10.4,23.2-23.2V198.4H2.4"/>
	<polygon style="opacity:0.3;fill:#9E5523;enable-background:new    ;" points="482.4,263.2 449.6,230.4 424,236 404.8,312 
		444.8,325.6 482.4,315.2 	"/>
</g>
<path style="fill:#12DB55;" d="M453.6,444.8c0,8.8-7.2,16.8-16.8,16.8H48c-8.8,0-16.8-7.2-16.8-16.8V240c0-8.8,7.2-16.8,16.8-16.8
	h388.8c8.8,0,16.8,7.2,16.8,16.8L453.6,444.8L453.6,444.8z"/>
<path style="fill:#10C146;" d="M31.2,240c0-8.8,7.2-16.8,16.8-16.8h388.8c8.8,0,16.8,7.2,16.8,16.8v204c0,8.8-7.2,16.8-16.8,16.8"/>
<path style="fill:#29EF66;" d="M31.2,240c0-8.8,7.2-16.8,16.8-16.8h388.8c8.8,0,16.8,7.2,16.8,16.8"/>
<path style="fill:#B56823;" d="M2.4,267.2v194.4c0,12.8,10.4,23.2,23.2,23.2h433.6c12.8,0,23.2-10.4,23.2-23.2V267.2H2.4z"/>
<path style="fill:#A85E20;" d="M31.2,267.2V444c0,8.8,7.2,16.8,16.8,16.8h388.8c8.8,0,16.8-7.2,16.8-16.8V267.2H31.2z"/>
<g>
	<rect x="2.4" y="198.4" style="fill:#C67634;" width="480" height="2.4"/>
	<rect x="2.4" y="131.2" style="fill:#C67634;" width="480" height="2.4"/>
	<rect x="2.4" y="267.2" style="fill:#C67634;" width="480" height="2.4"/>
</g>
<g>
	<path style="fill:#D39754;" d="M30.4,475.2h-7.2c-0.8,0-1.6-0.8-1.6-1.6c0-0.8,0.8-1.6,1.6-1.6h7.2c0.8,0,1.6,0.8,1.6,1.6
		S31.2,475.2,30.4,475.2z"/>
	<path style="fill:#D39754;" d="M440.8,475.2h-13.6c-0.8,0-1.6-0.8-1.6-1.6c0-0.8,0.8-1.6,1.6-1.6h13.6c0.8,0,1.6,0.8,1.6,1.6
		S441.6,475.2,440.8,475.2z M413.6,475.2H400c-0.8,0-1.6-0.8-1.6-1.6c0-0.8,0.8-1.6,1.6-1.6h13.6c0.8,0,1.6,0.8,1.6,1.6
		C415.2,474.4,414.4,475.2,413.6,475.2z M386.4,475.2h-13.6c-0.8,0-1.6-0.8-1.6-1.6c0-0.8,0.8-1.6,1.6-1.6h13.6
		c0.8,0,1.6,0.8,1.6,1.6S387.2,475.2,386.4,475.2z M358.4,475.2h-13.6c-0.8,0-1.6-0.8-1.6-1.6c0-0.8,0.8-1.6,1.6-1.6h13.6
		c0.8,0,1.6,0.8,1.6,1.6C360.8,474.4,360,475.2,358.4,475.2z M331.2,475.2h-13.6c-0.8,0-1.6-0.8-1.6-1.6c0-0.8,0.8-1.6,1.6-1.6h13.6
		c0.8,0,1.6,0.8,1.6,1.6S332,475.2,331.2,475.2z M304,475.2h-13.6c-0.8,0-1.6-0.8-1.6-1.6c0-0.8,0.8-1.6,1.6-1.6H304
		c0.8,0,1.6,0.8,1.6,1.6S304.8,475.2,304,475.2z M276.8,475.2h-13.6c-0.8,0-1.6-0.8-1.6-1.6c0-0.8,0.8-1.6,1.6-1.6h13.6
		c0.8,0,1.6,0.8,1.6,1.6S277.6,475.2,276.8,475.2z M249.6,475.2H236c-0.8,0-1.6-0.8-1.6-1.6c0-0.8,0.8-1.6,1.6-1.6h13.6
		c0.8,0,1.6,0.8,1.6,1.6C251.2,474.4,250.4,475.2,249.6,475.2z M221.6,475.2H208c-0.8,0-1.6-0.8-1.6-1.6c0-0.8,0.8-1.6,1.6-1.6h13.6
		c0.8,0,1.6,0.8,1.6,1.6C224,474.4,223.2,475.2,221.6,475.2z M194.4,475.2h-13.6c-0.8,0-1.6-0.8-1.6-1.6c0-0.8,0.8-1.6,1.6-1.6h13.6
		c0.8,0,1.6,0.8,1.6,1.6S195.2,475.2,194.4,475.2z M167.2,475.2h-13.6c-0.8,0-1.6-0.8-1.6-1.6c0-0.8,0.8-1.6,1.6-1.6h13.6
		c0.8,0,1.6,0.8,1.6,1.6C168.8,474.4,168,475.2,167.2,475.2z M140,475.2h-13.6c-0.8,0-1.6-0.8-1.6-1.6c0-0.8,0.8-1.6,1.6-1.6H140
		c0.8,0,1.6,0.8,1.6,1.6C141.6,474.4,140.8,475.2,140,475.2z M112.8,475.2H98.4c-0.8,0-1.6-0.8-1.6-1.6c0-0.8,0.8-1.6,1.6-1.6H112
		c0.8,0,1.6,0.8,1.6,1.6C114.4,474.4,113.6,475.2,112.8,475.2z M84.8,475.2H71.2c-0.8,0-1.6-0.8-1.6-1.6c0-0.8,0.8-1.6,1.6-1.6h13.6
		c0.8,0,1.6,0.8,1.6,1.6C87.2,474.4,85.6,475.2,84.8,475.2z M57.6,475.2H44c-0.8,0-1.6-0.8-1.6-1.6s0.8-1.6,1.6-1.6h13.6
		c0.8,0,1.6,0.8,1.6,1.6C59.2,474.4,58.4,475.2,57.6,475.2z"/>
	<path style="fill:#D39754;" d="M461.6,475.2h-7.2c-0.8,0-1.6-0.8-1.6-1.6c0-0.8,0.8-1.6,1.6-1.6h7.2c0.8,0,1.6,0.8,1.6,1.6
		C463.2,474.4,462.4,475.2,461.6,475.2z"/>
</g>
<g>
</g>
<g>
</g>
<g>
</g>
<g>
</g>
<g>
</g>
<g>
</g>
<g>
</g>
<g>
</g>
<g>
</g>
<g>
</g>
<g>
</g>
<g>
</g>
<g>
</g>
<g>
</g>
<g>
</g>
</svg>
